#N canvas 3 55 450 300 10;
#X obj 37 41 inlet~;
#X obj 97 41 inlet~;
#X obj 37 89 fexpr~ (atan2($x2 \, $x1))^2;
#X obj 37 139 outlet~;
#X obj 256 216 block~;
#X obj 294 114 inlet;
#X connect 0 0 2 0;
#X connect 1 0 2 1;
#X connect 2 0 3 0;
#X connect 5 0 4 0;
