#N canvas 3 54 450 300 10;
#X declare -lib windowing;
#X obj 48 105 inlet~;
#X obj 48 206 rfft~;
#X obj 151 110 inlet;
#X obj 151 151 block~;
#X obj 41 53 import windowing;
#X obj 47 161 hamming~;
#X obj 49 248 outlet~;
#X obj 103 249 outlet~;
#X connect 0 0 5 0;
#X connect 1 0 6 0;
#X connect 1 1 7 0;
#X connect 2 0 3 0;
#X connect 5 0 1 0;
