#N canvas 1131 433 927 526 10;
#X obj 20 53 inlet~;
#X obj 106 53 inlet~;
#X obj 556 91 block~;
#X obj 418 103 expr 3*44100/$f1;
#X obj 418 135 expr if($f1 > 44100 \, 44100 \, $f1);
#X text 67 52 sinal;
#X text 150 50 espectro magnitude;
#X obj 266 53 inlet~;
#X text 317 51 espectro fase;
#X obj 415 52 inlet;
#X text 462 53 f0;
#X obj 551 53 inlet;
#X text 600 53 N;
#X obj 265 90 tabwrite~ espectrofase \;;
#X obj 270 167 tabread4 espectrofase;
#X text 624 137 Numero de amostras a ser exibidas;
#X obj 270 139 expr $f1 * $f2 / 44100;
#X obj 270 200 expr ((3*pi/2)-$f2)/2*pi*$f1;
#X text 414 165 phi #TODO: Ver se é a letra grega certa;
#X text 459 202 t0;
#X obj 272 234 expr 44100*$f1;
#X text 372 234 k0;
#X connect 3 0 4 0;
#X connect 7 0 13 0;
#X connect 9 0 3 0;
#X connect 9 0 16 0;
#X connect 9 0 17 0;
#X connect 11 0 2 0;
#X connect 11 0 16 1;
#X connect 14 0 17 1;
#X connect 16 0 14 0;
#X connect 17 0 20 0;
