#N canvas 249 112 624 300 10;
#X text 99 5 Renan Teruo Carneiro - N° USP 6.51416e+06;
#X obj 202 254 pitchtracker2;
#X obj 277 94 vradio 15 1 0 8 empty empty empty 0 -8 0 10 -262144 -1
-1 0;
#X text 295 93 32;
#X text 297 108 64;
#X text 295 123 128;
#X text 296 138 256;
#X text 296 153 512;
#X text 296 169 1024;
#X text 296 183 2048;
#X obj 77 90 adc~;
#X obj 133 95 readsf~;
#X obj 77 160 multiplex~;
#X text 299 76;
#X text 298 200 4096;
#X obj 277 226 expr pow(2 \, $f1+5);
#X connect 2 0 15 0;
#X connect 10 0 12 0;
#X connect 11 0 12 1;
#X connect 12 0 1 0;
#X connect 15 0 1 1;
