#N canvas 249 111 624 300 10;
#X text 99 5 Renan Teruo Carneiro - N° USP 6.51416e+06;
#X obj 202 254 pitchtracker2;
#X obj 277 94 vradio 15 1 0 8 empty empty empty 0 -8 0 10 -262144 -1
-1 0;
#X obj 277 226 expr 2^($f1 + 4);
#X text 300 91 16;
#X text 296 108 32;
#X text 302 124 64;
#X text 300 138 128;
#X text 302 152 256;
#X text 300 167 512;
#X text 300 179 1024;
#X text 301 198 2048;
#X obj 77 90 adc~;
#X obj 133 95 readsf~;
#X obj 77 160 multiplex~;
#X obj 27 145 bng 15 250 50 0 empty empty empty 17 7 0 10 -262144 -1
-1;
#X connect 2 0 3 0;
#X connect 3 0 1 1;
#X connect 12 0 14 0;
#X connect 13 0 14 1;
#X connect 14 0 1 0;
#X connect 15 0 14 0;
