#N canvas 1150 275 621 449 10;
#X declare -lib windowing;
#X text 99 5 Renan Teruo Carneiro - N° USP 6.51416e+06;
#X obj 140 211 pitchtracker2;
#X obj 77 212 espectro;
#X obj 78 263 absol;
#X obj 118 265 ang;
#X obj 78 128 inlet~;
#X obj 132 123 inlet;
#X connect 2 0 3 0;
#X connect 2 0 4 0;
#X connect 2 1 3 1;
#X connect 2 1 4 1;
#X connect 5 0 2 0;
#X connect 5 0 1 0;
#X connect 6 0 2 1;
#X connect 6 0 1 1;
#X connect 6 0 3 2;
#X connect 6 0 4 2;
